<mxfile host="app.diagrams.net" agent="Mozilla/5.0 (Windows NT 10.0; Win64; x64) AppleWebKit/537.36 (KHTML, like Gecko) Chrome/131.0.0.0 Safari/537.36" version="26.0.5">
  <diagram id="C5RBs43oDa-KdzZeNtuy" name="Page-1">
    <mxGraphModel dx="794" dy="459" grid="1" gridSize="10" guides="1" tooltips="1" connect="1" arrows="1" fold="1" page="1" pageScale="1" pageWidth="827" pageHeight="1169" math="0" shadow="0">
      <root>
        <mxCell id="WIyWlLk6GJQsqaUBKTNV-0" />
        <mxCell id="WIyWlLk6GJQsqaUBKTNV-1" parent="WIyWlLk6GJQsqaUBKTNV-0" />
        <mxCell id="BHsqj5NPpcDyzOqtNZ7E-2" style="edgeStyle=orthogonalEdgeStyle;rounded=0;orthogonalLoop=1;jettySize=auto;html=1;exitX=0.5;exitY=1;exitDx=0;exitDy=0;" edge="1" parent="WIyWlLk6GJQsqaUBKTNV-1" source="BHsqj5NPpcDyzOqtNZ7E-0">
          <mxGeometry relative="1" as="geometry">
            <mxPoint x="355" y="100" as="targetPoint" />
          </mxGeometry>
        </mxCell>
        <mxCell id="BHsqj5NPpcDyzOqtNZ7E-0" value="Start" style="ellipse;whiteSpace=wrap;html=1;" vertex="1" parent="WIyWlLk6GJQsqaUBKTNV-1">
          <mxGeometry x="310" width="90" height="50" as="geometry" />
        </mxCell>
        <mxCell id="BHsqj5NPpcDyzOqtNZ7E-6" style="edgeStyle=orthogonalEdgeStyle;rounded=0;orthogonalLoop=1;jettySize=auto;html=1;" edge="1" parent="WIyWlLk6GJQsqaUBKTNV-1" source="BHsqj5NPpcDyzOqtNZ7E-4">
          <mxGeometry relative="1" as="geometry">
            <mxPoint x="355" y="320" as="targetPoint" />
          </mxGeometry>
        </mxCell>
        <mxCell id="BHsqj5NPpcDyzOqtNZ7E-4" value="Ask the user if they wanna play the game." style="rhombus;whiteSpace=wrap;html=1;" vertex="1" parent="WIyWlLk6GJQsqaUBKTNV-1">
          <mxGeometry x="273.75" y="100" width="162.5" height="150" as="geometry" />
        </mxCell>
        <mxCell id="BHsqj5NPpcDyzOqtNZ7E-11" style="edgeStyle=orthogonalEdgeStyle;rounded=0;orthogonalLoop=1;jettySize=auto;html=1;entryX=0.5;entryY=0;entryDx=0;entryDy=0;" edge="1" parent="WIyWlLk6GJQsqaUBKTNV-1" source="BHsqj5NPpcDyzOqtNZ7E-8">
          <mxGeometry relative="1" as="geometry">
            <mxPoint x="354.5" y="490" as="targetPoint" />
          </mxGeometry>
        </mxCell>
        <mxCell id="BHsqj5NPpcDyzOqtNZ7E-8" value="pick 2 cards for player and dealer" style="rounded=0;whiteSpace=wrap;html=1;" vertex="1" parent="WIyWlLk6GJQsqaUBKTNV-1">
          <mxGeometry x="287" y="320" width="136" height="80" as="geometry" />
        </mxCell>
        <mxCell id="BHsqj5NPpcDyzOqtNZ7E-9" value="Yes" style="text;html=1;align=center;verticalAlign=middle;resizable=0;points=[];autosize=1;strokeColor=none;fillColor=none;" vertex="1" parent="WIyWlLk6GJQsqaUBKTNV-1">
          <mxGeometry x="320" y="268" width="40" height="30" as="geometry" />
        </mxCell>
        <mxCell id="BHsqj5NPpcDyzOqtNZ7E-13" style="edgeStyle=orthogonalEdgeStyle;rounded=0;orthogonalLoop=1;jettySize=auto;html=1;" edge="1" parent="WIyWlLk6GJQsqaUBKTNV-1" source="BHsqj5NPpcDyzOqtNZ7E-12">
          <mxGeometry relative="1" as="geometry">
            <mxPoint x="510" y="550" as="targetPoint" />
          </mxGeometry>
        </mxCell>
        <mxCell id="BHsqj5NPpcDyzOqtNZ7E-16" style="edgeStyle=orthogonalEdgeStyle;rounded=0;orthogonalLoop=1;jettySize=auto;html=1;exitX=0.5;exitY=1;exitDx=0;exitDy=0;" edge="1" parent="WIyWlLk6GJQsqaUBKTNV-1" source="BHsqj5NPpcDyzOqtNZ7E-12">
          <mxGeometry relative="1" as="geometry">
            <mxPoint x="355" y="680" as="targetPoint" />
          </mxGeometry>
        </mxCell>
        <mxCell id="BHsqj5NPpcDyzOqtNZ7E-12" value="check the sum for player if 21" style="rhombus;whiteSpace=wrap;html=1;" vertex="1" parent="WIyWlLk6GJQsqaUBKTNV-1">
          <mxGeometry x="292.5" y="490" width="125" height="120" as="geometry" />
        </mxCell>
        <mxCell id="BHsqj5NPpcDyzOqtNZ7E-14" value="your win with a blackjack" style="rounded=0;whiteSpace=wrap;html=1;" vertex="1" parent="WIyWlLk6GJQsqaUBKTNV-1">
          <mxGeometry x="510" y="520" width="120" height="60" as="geometry" />
        </mxCell>
        <mxCell id="BHsqj5NPpcDyzOqtNZ7E-15" value="yes" style="text;html=1;align=center;verticalAlign=middle;resizable=0;points=[];autosize=1;strokeColor=none;fillColor=none;" vertex="1" parent="WIyWlLk6GJQsqaUBKTNV-1">
          <mxGeometry x="440" y="528" width="40" height="30" as="geometry" />
        </mxCell>
        <mxCell id="BHsqj5NPpcDyzOqtNZ7E-17" value="no" style="text;html=1;align=center;verticalAlign=middle;resizable=0;points=[];autosize=1;strokeColor=none;fillColor=none;" vertex="1" parent="WIyWlLk6GJQsqaUBKTNV-1">
          <mxGeometry x="320" y="628" width="40" height="30" as="geometry" />
        </mxCell>
        <mxCell id="BHsqj5NPpcDyzOqtNZ7E-18" value="" style="rounded=0;whiteSpace=wrap;html=1;" vertex="1" parent="WIyWlLk6GJQsqaUBKTNV-1">
          <mxGeometry x="297.5" y="680" width="120" height="60" as="geometry" />
        </mxCell>
      </root>
    </mxGraphModel>
  </diagram>
</mxfile>
